<svg width="170" height="34" viewBox="0 0 170 34" fill="none" xmlns="http://www.w3.org/2000/svg">
<path d="M17 0L20.8167 11.7467L33.168 11.7467L23.1756 19.0066L26.9923 30.7533L17 23.4934L7.00765 30.7533L10.8244 19.0066L0.832039 11.7467L13.1833 11.7467L17 0Z" fill="#EC9F08"/>
<path d="M51 0L54.8167 11.7467L67.168 11.7467L57.1756 19.0066L60.9923 30.7533L51 23.4934L41.0077 30.7533L44.8244 19.0066L34.832 11.7467L47.1833 11.7467L51 0Z" fill="#EC9F08"/>
<path d="M85 0L88.8167 11.7467L101.168 11.7467L91.1756 19.0066L94.9923 30.7533L85 23.4934L75.0077 30.7533L78.8244 19.0066L68.832 11.7467L81.1833 11.7467L85 0Z" fill="#EC9F08"/>
<path d="M119 0L122.817 11.7467L135.168 11.7467L125.176 19.0066L128.992 30.7533L119 23.4934L109.008 30.7533L112.824 19.0066L102.832 11.7467L115.183 11.7467L119 0Z" fill="#EC9F08"/>
<path d="M153 0L156.817 11.7467L169.168 11.7467L159.176 19.0066L162.992 30.7533L153 23.4934L143.008 30.7533L146.824 19.0066L136.832 11.7467L149.183 11.7467L153 0Z" fill="#EC9F08"/>
</svg>
